<svg width="72" height="62" viewBox="0 0 72 62" fill="none" xmlns="http://www.w3.org/2000/svg">
<path d="M11.6248 23.1636C11.6248 23.1636 8.57813 24.7953 8.22787 26.4224C7.87762 28.0541 8.57813 29.9791 9.53438 31.2372C10.4906 32.4953 11.6248 33.5359 13.0202 33.9805C14.4157 34.4251 15.6333 34.3494 15.6333 34.3494C15.6333 34.3494 18.8578 37.4615 24.6009 41.6852C30.3439 45.9088 37.6659 50.946 45.9386 54.8717C54.2113 58.7974 57.1745 59.7622 59.4373 59.7622C61.7 59.7622 61.6166 56.8724 61.3553 55.9832C61.094 55.094 46.5501 41.3163 46.5501 41.3163L11.6248 23.1636Z" fill="#FF8E00"/>
<path d="M17.7237 30.3527L15.5444 28.3521C15.5444 28.3521 13.2816 24.7196 11.1912 24.7196C9.10082 24.7196 8.22796 26.4223 8.22796 26.4223C8.22796 26.4223 7.96666 24.5683 10.5797 21.0163C13.1927 17.4642 16.5006 14.6453 19.4639 12.8669C22.4272 11.0886 26.0798 9.0122 28.5205 7.82977C30.9611 6.64733 36.2705 5.1622 39.3228 4.27301C42.3694 3.38382 48.9909 2.27233 52.0376 2.7926C55.0842 3.31288 56.3907 5.09125 56.3907 6.94058C56.3907 8.7899 55.8681 10.0527 55.4345 10.4217C55.0008 10.7906 52.1265 12.8669 52.1265 12.8669L17.7237 30.3527Z" fill="#F5B03E"/>
<path d="M23.8335 22.5439L18.4351 25.5094L16.1724 29.2885C16.1724 29.2885 16.606 30.5466 17.3065 31.2135C18.0015 31.8804 23.8335 36.6338 28.0087 39.6702C31.2667 42.0398 38.2106 47.0675 38.2106 47.0675C38.2106 47.0675 38.4941 49.5932 38.8221 51.3669C39.0835 52.7763 39.1001 55.127 40.8458 55.0608C43.0474 54.9756 41.7799 51.1824 43.5256 51.2202C47.0114 51.2959 43.5534 59.3175 47.3005 59.275C50.286 59.2419 48.3902 54.8574 49.8857 54.1101C50.6974 53.7034 52.3097 55.4297 54.9394 56.4088C58.1862 57.6148 60.1654 58.5277 61.2106 58.1115C63.4178 57.2317 58.7644 36.7189 58.2418 33.2378C57.7192 29.7567 55.1173 11.8783 54.9394 11.2871C54.7615 10.6959 51.1922 10.6202 51.1922 10.6202L45.7049 12.252L37.8659 13.1412L28.637 17.8094L23.8335 22.5439Z" fill="#FFCC8A"/>
<path d="M22.4717 21.8013C20.7593 22.6243 18.5522 23.0831 16.6897 25.6939C15.1386 27.8695 14.7272 30.0973 15.8335 30.2675C16.9399 30.4378 17.7794 27.1554 19.2527 25.9067C21.6155 23.8966 23.528 23.6837 24.8845 22.6148C26.2411 21.5459 27.7255 18.6418 33.3796 16.0736C39.9677 13.0797 43.9039 13.8696 45.4439 13.3777C47.4565 12.7344 48.0013 11.6844 50.5198 11.2398C53.1829 10.7716 55.0342 11.675 55.0342 11.675C55.0342 11.675 55.6402 10.4783 54.8341 9.92023C54.0279 9.36212 52.5435 8.92698 50.0639 9.35739C47.3508 9.82563 45.3383 11.3675 44.7879 11.4101C44.2375 11.4527 38.6056 11.1973 31.9174 14.4466C25.2292 17.6959 23.9783 21.0729 22.4717 21.8013Z" fill="#CB6C22"/>
<path d="M30.1602 26.9756L21.1647 28.6452C21.1647 28.6452 21.0257 30.0972 21.1147 30.5276C21.4149 31.9797 23.6777 34.2925 25.0342 34.6756C26.3907 35.0587 29.1539 35.1013 30.0601 34.7607C30.9663 34.4202 33.6794 32.7506 34.0296 31.852C34.3799 30.9533 34.2854 27.1932 33.5849 26.5925C32.8844 25.9966 30.1602 26.9756 30.1602 26.9756Z" fill="#DB0D27"/>
<path d="M23.8279 24.5825C22.8661 25.2163 21.0147 27.3636 21.1649 28.9008C21.315 30.4427 24.4339 33.1339 25.2845 33.3893C26.1351 33.6447 28.9038 33.6873 29.6099 33.517C30.3159 33.3467 33.029 31.6346 33.4293 31.0386C33.8296 30.4379 34.1854 27.1035 33.5294 26.5075C32.8733 25.9116 30.9164 24.1569 29.3597 23.769C27.7974 23.3859 24.7341 23.9819 23.8279 24.5825Z" fill="#ED6D30"/>
<path d="M46.8501 31.767C46.8501 31.767 38.8887 31.2798 38.7887 31.7055C38.6886 32.1311 38.5051 33.7771 39.011 35.1014C39.3669 36.0426 40.2175 37.6697 42.8305 38.6062C45.4435 39.5426 47.9564 38.521 48.6125 38.0906C49.8411 37.2866 50.625 36.2933 50.8252 35.6974C51.0253 35.1014 46.8501 31.767 46.8501 31.767Z" fill="#DB0D27"/>
<path d="M42.9809 28.2148C41.7523 28.5932 38.8112 30.1398 38.7557 31.852C38.7056 33.5642 40.1622 35.6594 40.9183 36.1277C41.6744 36.5959 44.1874 37.8398 46.0443 37.7547C47.9067 37.6696 50.4697 36.3878 50.82 35.702C51.1702 35.0162 51.3203 33.0061 51.1702 31.9797C51.0201 30.9533 48.4071 28.6452 47.1006 28.3C45.7941 27.9594 44.0873 27.8743 42.9809 28.2148Z" fill="#ED6D30"/>
<path d="M42.6807 44.2109C42.6807 44.2109 35.3921 42.4987 35.292 42.6264C35.1919 42.7541 34.1856 43.8231 34.4358 44.3386C34.686 44.8541 37.249 46.6041 38.3053 47.3751C39.3616 48.146 42.5528 49.7399 42.9309 49.6832C43.8371 49.5555 44.5376 48.3163 44.5376 48.3163L42.6807 44.2109Z" fill="#DB0D27"/>
<path d="M43.3312 41.6C41.5521 40.4886 38.9558 40.5737 37.5492 41.1318C36.1426 41.6899 35.2864 42.4136 35.1363 42.9717C34.9862 43.5298 36.1482 44.6034 36.6041 44.9014C37.0544 45.1994 38.4221 46.0791 38.4221 46.0791C38.4221 46.0791 40.4513 47.4318 41.2019 47.9237C42.2471 48.6095 43.5591 48.9973 43.9094 49.0399C44.2596 49.0825 45.8942 47.2852 45.5939 44.8872C45.4383 43.6622 44.8267 42.5365 43.3312 41.6Z" fill="#ED6D30"/>
<path d="M56.0015 38.1804L53.2884 38.0952C53.2884 38.0952 52.1821 39.8499 52.9382 41.8175C53.5553 43.4256 54.8507 44.3858 57.0078 44.8966C59.1705 45.4121 60.3769 45.2277 60.3769 45.2277L60.4102 43.9364L56.0015 38.1804Z" fill="#DB0D27"/>
<path d="M58.6142 35.2291C58.6142 35.2291 55.2674 34.8933 53.5383 37.5372C52.2151 39.5663 53.138 41.2595 54.1944 42.2433C55.2507 43.2271 56.8574 43.8703 58.0638 43.9555C59.2703 44.0406 60.4378 43.9602 60.4378 43.9602C60.4378 43.9602 59.9708 41.3352 59.5149 39.1406C59.2369 37.8257 58.6142 35.2291 58.6142 35.2291Z" fill="#ED6D30"/>
<path d="M48.8627 16.7122C48.8627 16.7122 42.3803 16.8824 41.9744 17.4405C41.5686 17.9986 41.5741 20.477 41.7743 21.4608C41.9744 22.4446 43.7368 24.8378 47.256 24.8804C50.7752 24.923 52.015 24.1757 53.3827 21.9149C54.7504 19.6541 53.3271 17.1236 53.3271 17.1236L48.8627 16.7122Z" fill="#DB0D27"/>
<path d="M48.9128 14.1864C47.5063 13.9547 45.5437 14.4418 44.5875 14.9999C43.6312 15.558 42.0745 16.7121 41.9745 17.5682C41.8744 18.4243 42.7806 20.9026 43.1309 21.3756C43.4811 21.8438 44.9377 23.1161 45.3936 23.3006C46.4499 23.7263 49.3632 23.5134 50.2193 23.258C51.0755 23.0026 53.4383 21.3756 53.6885 20.5195C53.9387 19.6634 54.2389 18.2114 53.0825 16.4567C51.9261 14.702 50.2193 14.404 48.9128 14.1864Z" fill="#ED6D30"/>
<path d="M58.0694 50.0803L52.2819 49.8674C52.2819 49.8674 51.5036 51.1965 51.7371 52.36C51.9261 53.3249 52.8657 54.6397 54.5502 55.1931C55.5065 55.5053 58.0083 55.3019 58.6198 54.9472C59.8541 54.2282 60.2488 52.9228 60.2099 52.2512C60.1932 51.9012 58.0694 50.0803 58.0694 50.0803Z" fill="#DB0D27"/>
<path d="M56.8074 47.9898C55.3064 47.7958 53.5773 48.4864 52.8323 49.1438C52.0874 49.8012 51.9372 50.6242 52.2208 51.6175C52.7378 53.4337 54.1055 53.9492 54.7393 54.2283C55.6788 54.6398 58.2585 54.5593 59.0702 54.0343C59.8763 53.5141 60.4879 52.6249 60.2989 51.258C60.1043 49.8864 59.3927 48.3208 56.8074 47.9898Z" fill="#ED6D30"/>
<path d="M20.3868 15.4872C20.4368 16.5088 22.5383 16.3338 23.3667 16.2628C24.0283 16.2061 25.6851 16.0878 25.6851 15.1703C25.6851 14.2527 24.2396 14.2574 23.161 14.2905C22.1214 14.3236 20.3423 14.6784 20.3868 15.4872ZM31.6783 9.47094C31.6783 10.1426 32.5456 10.2088 33.0849 10.2466C33.6242 10.2797 34.3247 10.1047 34.3691 9.57972C34.4081 9.04999 33.8743 8.7331 33.0849 8.69999C32.2565 8.65743 31.6783 8.90337 31.6783 9.47094ZM36.8487 11.0885C37.6437 11.8216 38.8335 10.8426 39.2505 10.3838C39.6619 9.92499 39.7453 9.22026 39.2894 8.87026C38.8335 8.52026 37.9662 8.90337 37.388 9.36216C36.8098 9.82094 36.3539 10.6297 36.8487 11.0885ZM45.8275 7.35675C46.7948 8.28851 48.3904 6.72297 49.052 6.19324C49.7136 5.66351 50.2529 4.92567 49.6302 4.32972C49.0075 3.73378 47.601 4.57567 47.0672 5.1054C46.528 5.6304 45.2048 6.76081 45.8275 7.35675ZM15.3387 23.1588C16.2782 23.348 16.584 22.402 16.7452 21.6784C16.912 20.9405 16.912 20.2358 16.2059 20.1317C15.4054 20.0135 14.9662 20.6946 14.8383 21.3615C14.7327 21.9622 14.4714 22.9838 15.3387 23.1588Z" fill="#FCC12B"/>
</svg>
