<svg width="62" height="62" viewBox="0 0 62 62" fill="none" xmlns="http://www.w3.org/2000/svg">
<path d="M22.199 50.84L37.9509 53.0197L57.2484 41.2251C57.2484 41.2251 54.8605 35.495 53.635 32.5645C52.4095 29.634 50.4284 25.6089 50.4284 25.6089C50.4284 25.6089 51.5086 22.6687 51.9978 19.1328C52.5645 15.0204 52.0656 13.9742 52.0656 13.9742L41.792 9.29027C41.792 9.29027 40.2711 10.4043 38.9051 12.9279C37.5392 15.4515 37.0645 16.4736 37.0645 16.4736C37.0645 16.4736 33.5867 16.2023 32.0173 16.2023C30.448 16.2023 27.8565 16.5414 27.8565 16.5414C27.8565 16.5414 25.4008 12.0415 24.1075 10.4721C22.8142 8.90277 20.7895 7.38184 20.7895 7.38184C20.7895 7.38184 11.6542 11.9301 11.2425 15.1997C10.8308 18.4692 11.2183 20.77 11.4944 22.1989C11.7656 23.6326 12.5842 25.6767 12.5842 25.6767C12.5842 25.6767 11.7656 26.9022 10.6758 29.7018C9.58592 32.5015 8.35561 35.9067 7.4692 37.3404C6.58279 38.7742 4.19482 42.0437 4.19482 42.0437L22.199 50.84V50.84Z" fill="#FF6011"/>
<path d="M15.3353 3.74421C14.3569 4.01546 13.1992 6.24358 12.1529 9.92483C11.6008 11.8672 11.1987 15.4273 11.1987 15.4273C11.1987 15.4273 14.4247 12.928 17.2922 11.8817C20.1597 10.8355 23.7925 10.1089 23.7925 10.1089C23.7925 10.1089 22.1214 8.20046 20.1548 6.47124C18.4547 4.97452 16.1781 3.51171 15.3353 3.74421V3.74421ZM48.6119 4.10749C47.9047 3.91858 45.4683 5.16342 43.7487 6.79092C42.0292 8.41842 40.3823 10.6562 40.3823 10.6562C40.3823 10.6562 43.8359 10.7919 46.9747 12.3855C50.1134 13.9742 52.2495 15.3837 52.2495 15.3837C52.2495 15.3837 52.1817 12.1191 51.4745 9.2903C50.748 6.37921 49.7937 4.42717 48.6119 4.10749V4.10749Z" fill="#575A5B"/>
<path d="M16.3379 8.01643C16.0182 8.20049 14.352 11.4603 14.4731 16.338C14.5651 19.9756 15.2917 22.8819 15.4709 22.8819C15.5629 22.8819 17.3309 20.7846 19.2006 19.4719C21.0703 18.1592 23.4728 17.4424 23.5406 17.2825C23.6762 16.9628 22.1553 13.7902 20.1112 11.1116C18.0671 8.43299 16.6528 7.83721 16.3379 8.01643V8.01643ZM41.7046 17.6555C41.6029 17.1905 42.8865 13.2477 44.204 11.1552C45.5215 9.06268 47.3864 6.97502 47.8853 7.06221C48.3842 7.15424 50.341 11.7461 49.7017 15.9263C49.0671 20.1064 48.2485 22.5186 48.0209 22.5622C47.8949 22.5864 46.5484 20.988 44.8821 19.6996C43.4968 18.6242 41.7434 17.8396 41.7046 17.6555V17.6555Z" fill="#FF9411"/>
<path d="M2.29093 42.3392C2.21828 41.9808 4.15578 41.6562 5.47328 41.0217C6.79078 40.3872 9.51781 39.1569 13.7028 39.6558C17.883 40.1547 19.9852 41.414 22.9786 43.429C25.9769 45.4537 27.2992 50.2006 27.2992 50.2006L34.1628 51.6537C34.1628 51.6537 36.5508 46.3111 38.2994 44.6545C39.767 43.2595 43.7244 40.1208 48.8006 39.6558C53.7558 39.2004 55.7563 40.2903 57.437 40.9297C58.5995 41.3704 59.6167 41.6126 59.7572 41.9759C59.8928 42.3392 57.7567 43.7923 57.7567 43.7923C57.7567 43.7923 59.7572 44.112 59.8008 44.3833C59.8686 44.7901 58.2992 45.7008 57.2094 46.3837C56.1195 47.0667 48.4906 50.9708 45.6619 52.4287C44.1603 53.2037 38.1589 55.427 37.2531 55.3834C36.3425 55.3398 25.7056 54.8361 24.9791 54.7925C24.2525 54.7489 17.1128 52.2447 13.4316 50.8351C9.34828 49.2754 2.02937 45.5651 2.20374 44.8822C2.29578 44.5189 4.79515 44.2476 4.79515 44.2476C4.79515 44.2476 2.37812 42.7945 2.29093 42.3392V42.3392Z" fill="#DFDFDF"/>
<path d="M31.063 57.9798C39.2828 58.3818 39.6074 51.4794 38.7452 48.5248C37.883 45.5701 37.5197 45.5701 37.5197 45.5701C37.5197 45.5701 35.7711 47.5948 34.8847 50.1183C34.6086 50.9079 27.2945 50.2104 27.2945 50.2104C27.2945 50.2104 26.9313 48.7573 26.2483 47.4349C25.7978 46.563 25.11 45.6379 25.11 45.6379C25.11 45.6379 23.8845 47.2993 23.6569 49.5226C23.4292 51.7507 22.7027 57.568 31.063 57.9798V57.9798Z" fill="#FEE9C9"/>
<path d="M25.4732 53.4992C25.1099 53.9157 26.0883 54.9668 26.563 55.4415C27.0426 55.921 28.0646 56.5798 28.6749 56.6331C29.4257 56.7009 31.2324 55.1315 31.2324 55.1315C31.2324 55.1315 33.0827 56.8462 34.1096 56.8123C35.1316 56.7784 36.3813 55.335 36.8269 54.8554C37.0982 54.56 37.6358 54.0078 37.1999 53.4895C36.8269 53.0439 36.2602 53.4701 35.8001 53.8964C34.8507 54.7876 34.1532 55.4415 34.0272 55.4657C33.8238 55.4996 31.368 53.2473 31.368 53.2473C31.368 53.2473 29.014 55.0201 28.5732 55.0201C28.3068 55.0201 27.4882 54.279 26.8343 53.6542C26.4129 53.2667 25.9527 52.9518 25.4732 53.4992V53.4992Z" fill="#4A4A4C"/>
<path d="M31.339 48.3502C29.5662 48.3648 26.6696 48.452 26.8392 50.3943C27.0087 52.3366 27.9629 54.1095 31.4746 54.0756C34.9863 54.0416 35.8727 52.201 35.9406 50.3604C35.9793 49.2706 35.5676 48.3163 31.339 48.3502V48.3502Z" fill="#2D2A25"/>
<path d="M22.2328 46.9553C22.073 47.4348 21.2108 47.5704 20.3583 47.1248C19.5058 46.6792 17.9364 45.7589 16.6092 45.1486C15.4951 44.6351 14.2551 44.33 14.3569 43.6131C14.4586 42.8962 15.8923 43.4096 17.0839 43.7826C18.2755 44.1556 20.7312 45.1825 21.2447 45.4876C21.7581 45.7928 22.475 46.2384 22.2328 46.9553V46.9553ZM17.5295 47.4978C16.1926 47.0764 13.8386 46.2336 13.7126 47.0909C13.6109 47.7739 15.655 48.2534 16.987 48.9993C18.1447 49.6484 20.2081 50.7625 20.6005 49.5128C20.9395 48.4181 18.8228 47.9095 17.5295 47.4978ZM40.6778 47.057C41.0556 47.9095 42.3247 47.0521 43.6083 46.4079C45.1098 45.6571 47.0861 44.8046 47.6673 44.6351C48.2486 44.4656 48.6894 44.2282 48.5876 43.8504C48.4859 43.4775 47.5705 43.4339 46.8826 43.5792C45.8945 43.7826 44.2912 44.1265 42.8914 44.8386C42.0147 45.289 40.1692 45.8945 40.6778 47.057V47.057ZM42.2133 49.7162C42.5136 50.7189 44.9064 49.4789 46.064 48.9993C47.2217 48.5198 49.508 47.7739 49.3045 47.1587C49.072 46.4661 46.1658 47.149 45.3472 47.3621C44.1895 47.6673 41.8064 48.3503 42.2133 49.7162Z" fill="white"/>
<path d="M41.4964 35.7034C41.0169 37.1371 39.6994 38.7162 38.1881 38.3965C36.6769 38.0768 36.0762 36.522 36.3814 34.3035C36.6672 32.2352 38.3479 31.4263 39.8592 31.746C41.3705 32.0657 42.16 33.7174 41.4964 35.7034V35.7034ZM25.9625 34.5118C26.2531 35.994 26.0933 37.7377 24.5868 38.227C23.0804 38.7113 21.2834 38.038 20.6973 35.8777C20.0483 33.4849 21.0122 32.3951 22.5186 31.9107C24.0298 31.4215 25.5556 32.458 25.9625 34.5118V34.5118Z" fill="#2D2A25"/>
<path d="M23.2599 32.7003C23.6764 33.1168 23.4294 33.8579 23.0225 34.2357C22.7755 34.4634 22.0005 34.9865 21.4871 34.3035C21.1093 33.7998 21.3853 33.2476 21.8261 32.802C22.2669 32.3612 22.8821 32.3273 23.2599 32.7003V32.7003ZM38.7696 32.802C39.2443 33.1459 39.0796 33.9935 38.7357 34.4295C38.5274 34.6959 37.8008 35.4806 37.2341 34.846C36.9289 34.5021 36.9628 33.7174 37.3261 33.2089C37.6943 32.7051 38.3385 32.4968 38.7696 32.802V32.802Z" fill="#DFDFDF"/>
</svg>
