<svg width="34" height="60" viewBox="0 0 34 60" fill="none" xmlns="http://www.w3.org/2000/svg">
<g clip-path="url(#clip0_35_1111)">
<path d="M26.8003 9.73816H7.18231C5.49625 9.73816 4.11914 11.3677 4.11914 13.3863V18.7807C4.11914 23.6177 4.21613 44.6577 4.25146 51.1876C4.26045 52.4177 4.98433 53.4485 5.99918 53.6899C7.71222 54.0893 11.5352 55.2257 16.991 55.2257C22.4474 55.2257 26.2704 54.0901 27.9828 53.6899C28.9919 53.4588 29.7235 52.4114 29.7312 51.1876C29.7665 44.6473 29.8635 23.6073 29.8635 18.7807V13.3863C29.8635 11.3677 28.4864 9.73816 26.8003 9.73816Z" fill="#EA3B3B"/>
<path d="M22.1119 10.4211C22.1119 10.4211 21.5294 23.281 24.6548 29.1161C27.3647 34.1738 17.583 57.1491 17.583 57.1491L25.3787 56.3708C25.3787 56.3708 29.2281 36.3608 25.9523 28.0965C23.2771 21.3465 27.3647 9.69531 27.3647 9.69531L22.1119 10.4211Z" fill="white"/>
<path d="M11.7025 11.452C11.7025 11.452 8.76265 14.8905 8.76265 20.1165V51.1354L1.54053 49.4209L1.87581 9.68506L11.7025 11.452Z" fill="#F25353"/>
<path d="M25.802 9.73826C28.0443 9.73826 29.8633 11.9038 29.8633 14.5752V18.7808C29.8633 23.6178 29.7664 44.6578 29.731 51.1877C29.722 52.4178 28.9982 53.4486 27.9827 53.69C26.2703 54.0894 22.4473 55.2258 16.9908 55.2258C11.5434 55.2258 7.71205 54.0902 5.99901 53.69C4.98994 53.4589 4.25835 52.4115 4.25129 51.1877C4.21596 44.6474 4.11897 23.6074 4.11897 18.7808V14.5752C4.11897 11.9038 5.93735 9.73826 8.18029 9.73826H25.802ZM25.802 5.77405H8.18029C4.10099 5.77405 0.790527 9.72793 0.790527 14.5752V18.7808C0.790527 23.6281 0.887516 44.8261 0.922843 51.2092C0.940828 54.3007 2.80352 56.9816 5.36377 57.5811C5.55838 57.6232 5.78769 57.686 6.04397 57.7495C8.07431 58.2538 11.862 59.19 17.0005 59.19C22.1383 59.19 25.917 58.2538 27.957 57.7495C28.2133 57.6868 28.4336 57.6343 28.6365 57.5811C31.1968 56.9816 33.0601 54.311 33.0775 51.2092C33.1128 44.8261 33.2098 23.6178 33.2098 18.7808V14.5752C33.1918 9.72793 29.8723 5.77405 25.802 5.77405Z" fill="#4C2F1B"/>
<path d="M16.9909 11.1675C3.60645 11.1675 3.60645 8.12848 3.60645 6.98258C3.60645 5.83588 3.60645 2.79761 16.9909 2.79761C30.3753 2.79761 30.3753 5.83588 30.3753 6.98258C30.3753 8.12928 30.3753 11.1675 16.9909 11.1675Z" fill="#E4F1F7"/>
<path d="M16.9908 4.775C23.4627 4.775 28.7065 5.76367 28.7065 6.98343C28.7065 8.20318 23.4627 9.19185 16.9908 9.19185C10.5195 9.19185 5.27507 8.20318 5.27507 6.98343C5.27507 5.76367 10.5195 4.775 16.9908 4.775ZM16.9908 0.810791C13.6887 0.810791 10.5632 1.053 8.18858 1.50485C6.31689 1.85187 1.94727 2.68251 1.94727 6.98343C1.94727 11.2843 6.32588 12.1142 8.18922 12.462C10.5638 12.9139 13.6983 13.1561 16.9914 13.1561C20.2845 13.1561 23.419 12.9139 25.7936 12.462C27.6653 12.115 32.0356 11.2843 32.0356 6.98343C32.0356 2.68251 27.6563 1.85187 25.7936 1.50485C23.4184 1.053 20.2929 0.810791 16.9908 0.810791Z" fill="#4C2F1B"/>
<path d="M16.9911 57.2022C12.0292 57.2022 8.34817 56.2874 6.37949 55.8038C6.11422 55.7411 5.88491 55.6775 5.68194 55.6354C3.89825 55.2257 2.60079 53.354 2.5918 51.1979V50.8199C2.5918 50.2101 2.83009 49.6312 3.23603 49.2532C3.52764 48.98 3.88926 48.8323 4.26051 48.8323C4.40182 48.8323 4.54313 48.8537 4.67545 48.895C4.72876 48.9165 10.2288 50.5881 16.9737 50.5881C23.7193 50.5881 29.2547 48.9165 29.3163 48.895C29.4576 48.8529 29.59 48.8323 29.7313 48.8323C30.0935 48.8323 30.4551 48.9792 30.7557 49.2532C31.1617 49.6312 31.4 50.2101 31.4 50.8199V51.1773C31.4 53.3333 30.1025 55.2042 28.3098 55.6251C28.1069 55.6672 27.8776 55.7299 27.6123 55.7935C25.6256 56.2977 21.9529 57.2022 16.9911 57.2022Z" fill="#E4F1F7"/>
<path d="M4.2515 50.8302C4.2515 50.8302 9.90189 52.586 16.9647 52.586C24.0275 52.586 29.7222 50.8302 29.7222 50.8302V51.1876C29.7222 52.4177 28.9894 53.4484 27.9739 53.6898C26.2615 54.0893 22.4385 55.2257 16.9821 55.2257C11.5263 55.2257 7.70326 54.0901 5.99023 53.6898C4.98116 53.4588 4.24957 52.4113 4.24251 51.1876V50.8302H4.2515ZM4.2515 46.8557C3.51862 46.8557 2.80373 47.14 2.21217 47.6864C1.39965 48.4328 0.914062 49.6002 0.914062 50.8302V51.1876C0.931405 54.3108 2.79474 56.9814 5.35498 57.581C5.5496 57.6231 5.77891 57.6858 6.03455 57.7493C8.06553 58.2536 11.8532 59.1899 16.991 59.1899C22.1295 59.1899 25.9082 58.2536 27.9475 57.7493C28.2038 57.6866 28.4248 57.6342 28.6278 57.581C31.197 56.9814 33.0687 54.2894 33.0687 51.1876V50.8302C33.0687 49.6002 32.5921 48.4431 31.7796 47.6967C31.188 47.1503 30.4731 46.866 29.7402 46.866C29.4576 46.866 29.184 46.9081 28.9104 46.9923C28.8577 47.0026 23.5073 48.6218 16.9917 48.6218C10.4318 48.6218 5.16165 47.0129 5.11733 47.0026C4.81673 46.8978 4.53411 46.8557 4.2515 46.8557Z" fill="#4C2F1B"/>
<path d="M19.3926 6.9834C19.3926 7.30898 20.8904 7.57183 22.7384 7.57183C24.5863 7.57183 26.0841 7.30819 26.0841 6.9834C26.0841 6.65781 24.5863 6.39417 22.7384 6.39417C20.8911 6.39417 19.3926 6.65781 19.3926 6.9834Z" fill="#BECFD3"/>
</g>
<defs>
<clipPath id="clip0_35_1111">
<rect width="32.4186" height="58.3784" fill="white" transform="translate(0.790527 0.810791)"/>
</clipPath>
</defs>
</svg>
