<svg width="51" height="45" viewBox="0 0 51 45" fill="none" xmlns="http://www.w3.org/2000/svg">
<g filter="url(#filter0_d_20_519)">
<rect x="4" width="43" height="37" rx="10" fill="#154059"/>
</g>
<path d="M25.7232 5.86901C28.5891 5.86901 30.943 6.75819 32.3505 8.37208C33.49 9.67805 33.9534 11.3943 33.7269 13.4735C33.541 15.1846 32.4183 16.3065 31.2843 17.3078C30.8546 17.6877 30.3889 18.0157 29.8968 18.3619C28.9774 19.0086 28.0269 19.6772 27.2769 20.7272C26.6509 21.6047 26.4517 22.7424 26.3588 24.0353H23.4582C23.5621 22.2658 23.8022 21.0047 24.4633 20.058C24.9358 19.3819 25.6986 18.7932 26.5064 18.1699C27.1899 17.6424 27.8966 17.0971 28.4711 16.4551C30.0568 14.6865 30.5917 13.0114 30.018 11.6101C29.4389 10.1962 27.8815 9.38508 25.7455 9.38508C25.4348 9.38508 25.1135 9.40237 24.7918 9.43788C22.7702 9.65749 21.3773 11.0004 21.0028 13.0156H17.4506C17.9308 8.51506 20.3557 6.18347 24.8397 5.89752C25.1354 5.87883 25.4329 5.86901 25.7232 5.86901V5.86901ZM25.7232 4.93451C25.4124 4.93451 25.0994 4.94432 24.7827 4.96488C19.4805 5.30317 16.7097 8.38236 16.4678 13.9506H21.8165C21.8835 12.0218 22.9333 10.5798 24.888 10.3672C25.1728 10.336 25.459 10.3201 25.7455 10.3196C27.327 10.3196 28.7099 10.8298 29.1783 11.9718C29.7738 13.4249 28.437 15.1136 27.8013 15.8224C26.6249 17.1368 24.7139 18.0956 23.7234 19.5137C22.7524 20.9033 22.5797 22.7317 22.505 24.9693H27.219C27.2851 23.5386 27.3781 22.1682 28.0128 21.279C29.0452 19.8342 30.5871 19.1572 31.8793 18.0162C33.1136 16.9256 34.4122 15.6112 34.6323 13.5768C35.2574 7.82867 30.9717 4.93451 25.7232 4.93451V4.93451ZM24.9039 27.8925C26.043 27.8925 26.9693 28.8218 26.9693 29.9643C26.9693 31.1067 26.043 32.0351 24.9039 32.0351C23.7653 32.0351 22.839 31.1062 22.839 29.9638C22.839 28.8214 23.7653 27.8925 24.9039 27.8925ZM24.9039 26.958C23.26 26.958 21.9277 28.3041 21.9277 29.9643C21.9277 31.6244 23.26 32.9696 24.9039 32.9696C26.5483 32.9696 27.8806 31.6239 27.8806 29.9638C27.8806 28.3036 26.5483 26.958 24.9039 26.958Z" fill="white"/>
<defs>
<filter id="filter0_d_20_519" x="0" y="0" width="51" height="45" filterUnits="userSpaceOnUse" color-interpolation-filters="sRGB">
<feFlood flood-opacity="0" result="BackgroundImageFix"/>
<feColorMatrix in="SourceAlpha" type="matrix" values="0 0 0 0 0 0 0 0 0 0 0 0 0 0 0 0 0 0 127 0" result="hardAlpha"/>
<feOffset dy="4"/>
<feGaussianBlur stdDeviation="2"/>
<feComposite in2="hardAlpha" operator="out"/>
<feColorMatrix type="matrix" values="0 0 0 0 0 0 0 0 0 0 0 0 0 0 0 0 0 0 0.25 0"/>
<feBlend mode="normal" in2="BackgroundImageFix" result="effect1_dropShadow_20_519"/>
<feBlend mode="normal" in="SourceGraphic" in2="effect1_dropShadow_20_519" result="shape"/>
</filter>
</defs>
</svg>
