<svg width="51" height="45" viewBox="0 0 51 45" fill="none" xmlns="http://www.w3.org/2000/svg">
<g filter="url(#filter0_d_20_551)">
<rect x="4" width="43" height="37" rx="10" fill="#FEE379"/>
</g>
<g clip-path="url(#clip0_20_551)">
<path d="M30.6394 9.12891H20.3519C19.4677 9.12891 18.7456 9.88256 18.7456 10.8162V13.3111C18.7456 15.5482 18.7965 25.2792 18.815 28.2993C18.8197 28.8682 19.1993 29.3449 19.7315 29.4566C20.6298 29.6413 22.6345 30.1669 25.4955 30.1669C28.3568 30.1669 30.3615 29.6417 31.2595 29.4566C31.7886 29.3497 32.1723 28.8653 32.1763 28.2993C32.1948 25.2744 32.2457 15.5434 32.2457 13.3111V10.8162C32.2457 9.88256 31.5236 9.12891 30.6394 9.12891Z" fill="#EA3B3B"/>
<path d="M28.1806 9.44476C28.1806 9.44476 27.8751 15.3924 29.5141 18.0912C30.9351 20.4304 25.8057 31.0564 25.8057 31.0564L29.8937 30.6965C29.8937 30.6965 31.9122 21.4419 30.1944 17.6196C28.7916 14.4978 30.9351 9.10907 30.9351 9.10907L28.1806 9.44476Z" fill="white"/>
<path d="M22.7224 9.9215C22.7224 9.9215 21.1808 11.5118 21.1808 13.9289V28.2751L17.3936 27.4821L17.5694 9.10431L22.7224 9.9215Z" fill="#F25353"/>
<path d="M30.1158 9.12892C31.2916 9.12892 32.2455 10.1305 32.2455 11.366V13.3111C32.2455 15.5482 32.1946 25.2792 32.1761 28.2993C32.1714 28.8682 31.7918 29.3449 31.2593 29.4566C30.3613 29.6413 28.3566 30.1669 25.4953 30.1669C22.6387 30.1669 20.6296 29.6417 19.7313 29.4566C19.2021 29.3497 18.8185 28.8653 18.8148 28.2993C18.7963 25.2744 18.7454 15.5434 18.7454 13.3111V11.366C18.7454 10.1305 19.6989 9.12892 20.8751 9.12892H30.1158V9.12892ZM30.1158 7.29547H20.8751C18.736 7.29547 17 9.12414 17 11.366V13.3111C17 15.553 17.0509 25.357 17.0694 28.3092C17.0788 29.739 18.0556 30.979 19.3982 31.2563C19.5002 31.2757 19.6205 31.3047 19.7549 31.3341C20.8195 31.5673 22.8058 32.0004 25.5003 32.0004C28.1946 32.0004 30.1761 31.5673 31.2458 31.3341C31.3802 31.3051 31.4957 31.2809 31.6022 31.2563C32.9447 30.979 33.9219 29.7438 33.931 28.3092C33.9495 25.357 34.0003 15.5482 34.0003 13.3111V11.366C33.9909 9.12414 32.2502 7.29547 30.1158 7.29547Z" fill="#4C2F1B"/>
<path d="M25.4952 9.79004C18.4766 9.79004 18.4766 8.38447 18.4766 7.85449C18.4766 7.32415 18.4766 5.91895 25.4952 5.91895C32.5139 5.91895 32.5139 7.32415 32.5139 7.85449C32.5139 8.38484 32.5139 9.79004 25.4952 9.79004Z" fill="#E4F1F7"/>
<path d="M25.4951 6.83345C28.8889 6.83345 31.6387 7.29071 31.6387 7.85484C31.6387 8.41898 28.8889 8.87624 25.4951 8.87624C22.1017 8.87624 19.3515 8.41898 19.3515 7.85484C19.3515 7.29071 22.1017 6.83345 25.4951 6.83345ZM25.4951 5C23.7635 5 22.1246 5.11202 20.8793 5.321C19.8978 5.4815 17.6064 5.86567 17.6064 7.85484C17.6064 9.84402 19.9026 10.2278 20.8797 10.3887C22.1249 10.5977 23.7686 10.7097 25.4955 10.7097C27.2223 10.7097 28.866 10.5977 30.1112 10.3887C31.0927 10.2282 33.3845 9.84402 33.3845 7.85484C33.3845 5.86567 31.088 5.4815 30.1112 5.321C28.8657 5.11202 27.2267 5 25.4951 5Z" fill="#4C2F1B"/>
<path d="M25.4952 31.0811C22.8932 31.0811 20.9629 30.658 19.9306 30.4343C19.7915 30.4053 19.6712 30.3759 19.5648 30.3564C18.6294 30.1669 17.9491 29.3012 17.9443 28.3041V28.1293C17.9443 27.8472 18.0693 27.5794 18.2822 27.4046C18.4351 27.2783 18.6247 27.21 18.8194 27.21C18.8935 27.21 18.9676 27.2199 19.037 27.239C19.0649 27.2489 21.9491 28.022 25.4861 28.022C29.0234 28.022 31.9261 27.2489 31.9584 27.239C32.0325 27.2195 32.1019 27.21 32.176 27.21C32.366 27.21 32.5556 27.2779 32.7132 27.4046C32.9261 27.5794 33.0511 27.8472 33.0511 28.1293V28.2945C33.0511 29.2917 32.3707 30.157 31.4306 30.3517C31.3242 30.3711 31.2039 30.4001 31.0648 30.4295C30.0231 30.6627 28.0971 31.0811 25.4952 31.0811Z" fill="#E4F1F7"/>
<path d="M18.8146 28.1341C18.8146 28.1341 21.7776 28.9461 25.4813 28.9461C29.1849 28.9461 32.1712 28.1341 32.1712 28.1341V28.2993C32.1712 28.8682 31.7869 29.345 31.2544 29.4566C30.3564 29.6414 28.3516 30.1669 25.4904 30.1669C22.6294 30.1669 20.6246 29.6417 19.7263 29.4566C19.1972 29.3497 18.8136 28.8653 18.8099 28.2993V28.1341H18.8146ZM18.8146 26.2958C18.4303 26.2958 18.0554 26.4273 17.7452 26.68C17.3191 27.0252 17.0645 27.5651 17.0645 28.1341V28.2993C17.0735 29.7438 18.0507 30.979 19.3932 31.2563C19.4953 31.2757 19.6155 31.3048 19.7496 31.3341C20.8146 31.5674 22.8008 32.0004 25.4951 32.0004C28.1896 32.0004 30.1711 31.5674 31.2405 31.3341C31.3749 31.3051 31.4908 31.2809 31.5972 31.2563C32.9445 30.979 33.926 29.7339 33.926 28.2993V28.1341C33.926 27.5651 33.6761 27.03 33.25 26.6848C32.9398 26.4321 32.5649 26.3006 32.1806 26.3006C32.0324 26.3006 31.8889 26.3201 31.7454 26.359C31.7178 26.3638 28.9121 27.1127 25.4954 27.1127C22.0555 27.1127 19.2918 26.3686 19.2686 26.3638C19.111 26.3153 18.9628 26.2958 18.8146 26.2958Z" fill="#4C2F1B"/>
<path d="M26.7549 7.85486C26.7549 8.00544 27.5403 8.12701 28.5094 8.12701C29.4784 8.12701 30.2639 8.00507 30.2639 7.85486C30.2639 7.70427 29.4784 7.58234 28.5094 7.58234C27.5407 7.58234 26.7549 7.70427 26.7549 7.85486Z" fill="#BECFD3"/>
</g>
<defs>
<filter id="filter0_d_20_551" x="0" y="0" width="51" height="45" filterUnits="userSpaceOnUse" color-interpolation-filters="sRGB">
<feFlood flood-opacity="0" result="BackgroundImageFix"/>
<feColorMatrix in="SourceAlpha" type="matrix" values="0 0 0 0 0 0 0 0 0 0 0 0 0 0 0 0 0 0 127 0" result="hardAlpha"/>
<feOffset dy="4"/>
<feGaussianBlur stdDeviation="2"/>
<feComposite in2="hardAlpha" operator="out"/>
<feColorMatrix type="matrix" values="0 0 0 0 0 0 0 0 0 0 0 0 0 0 0 0 0 0 0.25 0"/>
<feBlend mode="normal" in2="BackgroundImageFix" result="effect1_dropShadow_20_551"/>
<feBlend mode="normal" in="SourceGraphic" in2="effect1_dropShadow_20_551" result="shape"/>
</filter>
<clipPath id="clip0_20_551">
<rect width="17" height="27" fill="white" transform="translate(17 5)"/>
</clipPath>
</defs>
</svg>
