<svg width="59" height="59" viewBox="0 0 59 59" fill="none" xmlns="http://www.w3.org/2000/svg">
<path d="M29.7885 3.6875C35.5871 3.6875 40.3495 5.44183 43.1972 8.62599C45.5028 11.2026 46.4404 14.5887 45.9822 18.691C45.6061 22.0669 43.3346 24.2803 41.04 26.2559C40.1707 27.0054 39.2285 27.6526 38.2329 28.3357C36.3726 29.6115 34.4495 30.9308 32.9321 33.0022C31.6655 34.7335 31.2626 36.9783 31.0746 39.5291H25.2059C25.4161 36.0379 25.9019 33.5498 27.2396 31.6821C28.1955 30.3481 29.7388 29.1866 31.3733 27.9568C32.7561 26.916 34.1859 25.8402 35.3484 24.5735C38.5565 21.0842 39.6388 17.7793 38.4781 15.0146C37.3064 12.225 34.1555 10.6246 29.8337 10.6246C29.205 10.6246 28.5551 10.6587 27.9042 10.7288C23.8139 11.1621 20.9957 13.8115 20.2379 17.7876H13.051C14.0226 8.90808 18.9289 4.30792 28.001 3.74373C28.5993 3.70686 29.2013 3.6875 29.7885 3.6875V3.6875ZM29.7885 1.84375C29.1598 1.84375 28.5265 1.86311 27.8858 1.90367C17.1579 2.57111 11.552 8.64627 11.0625 19.6323H21.8844C22.0199 15.8268 24.1439 12.9818 28.0987 12.5624C28.675 12.5008 29.2542 12.4694 29.8337 12.4684C33.0335 12.4684 35.8314 13.475 36.7791 15.7281C37.984 18.5951 35.2792 21.9268 33.9932 23.3253C31.6129 25.9185 27.7466 27.8102 25.7424 30.6081C23.7779 33.3498 23.4285 36.957 23.2773 41.3719H32.8151C32.9487 38.5491 33.1368 35.8453 34.421 34.0909C36.5099 31.2405 39.6296 29.9047 42.244 27.6535C44.7414 25.5018 47.3687 22.9086 47.814 18.8948C49.0788 7.55384 40.4076 1.84375 29.7885 1.84375V1.84375ZM28.131 47.1392C30.4357 47.1392 32.3099 48.9728 32.3099 51.2268C32.3099 53.4807 30.4357 55.3125 28.131 55.3125C25.8272 55.3125 23.9531 53.4798 23.9531 51.2258C23.9531 48.9719 25.8272 47.1392 28.131 47.1392ZM28.131 45.2954C24.8049 45.2954 22.1093 47.9513 22.1093 51.2268C22.1093 54.5022 24.8049 57.1563 28.131 57.1563C31.4581 57.1563 34.1536 54.5013 34.1536 51.2258C34.1536 47.9504 31.4581 45.2954 28.131 45.2954Z" fill="white"/>
</svg>
