<svg width="51" height="45" viewBox="0 0 51 45" fill="none" xmlns="http://www.w3.org/2000/svg">
<g filter="url(#filter0_d_20_528)">
<rect x="4" width="43" height="37" rx="10" fill="#C99C72"/>
</g>
<path d="M13.3762 15.3381C13.3762 15.3381 11.9206 16.0928 11.7533 16.8453C11.5859 17.6 11.9206 18.4903 12.3775 19.0722C12.8344 19.6541 13.3762 20.1353 14.0429 20.3409C14.7097 20.5466 15.2914 20.5116 15.2914 20.5116C15.2914 20.5116 16.832 21.9509 19.5759 23.9044C22.3198 25.8578 25.8181 28.1875 29.7706 30.0031C33.7231 31.8188 35.1389 32.265 36.22 32.265C37.3011 32.265 37.2612 30.9284 37.1364 30.5172C37.0115 30.1059 30.0628 23.7338 30.0628 23.7338L13.3762 15.3381Z" fill="#FF8E00"/>
<path d="M16.2903 18.6631L15.2491 17.7378C15.2491 17.7378 14.168 16.0578 13.1692 16.0578C12.1705 16.0578 11.7535 16.8453 11.7535 16.8453C11.7535 16.8453 11.6286 15.9878 12.8771 14.345C14.1255 12.7022 15.706 11.3985 17.1217 10.576C18.5375 9.75345 20.2827 8.79314 21.4488 8.24626C22.6149 7.69939 25.1516 7.01251 26.6099 6.60126C28.0655 6.19001 31.2291 5.67595 32.6847 5.91658C34.1403 6.1572 34.7646 6.9797 34.7646 7.83501C34.7646 8.69033 34.5149 9.27439 34.3077 9.44501C34.1005 9.61564 32.7272 10.576 32.7272 10.576L16.2903 18.6631Z" fill="#F5B03E"/>
<path d="M19.2091 15.0516L16.6299 16.4231L15.5488 18.1709C15.5488 18.1709 15.756 18.7528 16.0907 19.0612C16.4227 19.3697 19.2091 21.5681 21.204 22.9725C22.7605 24.0684 26.0782 26.3937 26.0782 26.3937C26.0782 26.3937 26.2137 27.5619 26.3704 28.3822C26.4952 29.0341 26.5032 30.1212 27.3373 30.0906C28.3891 30.0512 27.7835 28.2969 28.6176 28.3144C30.283 28.3494 28.6309 32.0594 30.4212 32.0397C31.8476 32.0244 30.9418 29.9966 31.6563 29.6509C32.0441 29.4628 32.8145 30.2612 34.0709 30.7141C35.6221 31.2719 36.5677 31.6941 37.0671 31.5016C38.1216 31.0947 35.8984 21.6075 35.6487 19.9975C35.399 18.3875 34.1559 10.1187 34.0709 9.8453C33.9859 9.57187 32.2805 9.53687 32.2805 9.53687L29.6588 10.2916L25.9135 10.7028L21.5041 12.8619L19.2091 15.0516V15.0516Z" fill="#FFCC8A"/>
<path d="M18.5588 14.7081C17.7407 15.0887 16.6862 15.3009 15.7963 16.5084C15.0552 17.5147 14.8587 18.545 15.3873 18.6237C15.9158 18.7025 16.3169 17.1844 17.0208 16.6069C18.1498 15.6772 19.0635 15.5787 19.7116 15.0844C20.3598 14.59 21.069 13.2469 23.7704 12.059C26.918 10.6744 28.7987 11.0397 29.5344 10.8122C30.496 10.5147 30.7563 10.029 31.9596 9.82342C33.2319 9.60686 34.1165 10.0247 34.1165 10.0247C34.1165 10.0247 34.406 9.47124 34.0208 9.21311C33.6357 8.95499 32.9265 8.75374 31.7418 8.9528C30.4455 9.16936 29.484 9.88249 29.221 9.90217C28.958 9.92186 26.2673 9.80374 23.0718 11.3065C19.8763 12.8094 19.2787 14.3712 18.5588 14.7081V14.7081Z" fill="#CB6C22"/>
<path d="M22.2324 17.1012L17.9346 17.8734C17.9346 17.8734 17.8682 18.545 17.9107 18.744C18.0541 19.4156 19.1352 20.4853 19.7833 20.6625C20.4315 20.8397 21.7516 20.8594 22.1846 20.7019C22.6176 20.5444 23.9138 19.7722 24.0812 19.3565C24.2485 18.9409 24.2033 17.2019 23.8687 16.924C23.534 16.6484 22.2324 17.1012 22.2324 17.1012Z" fill="#DB0D27"/>
<path d="M19.2066 15.9944C18.7471 16.2875 17.8626 17.2806 17.9343 17.9916C18.006 18.7047 19.4962 19.9494 19.9026 20.0675C20.309 20.1856 21.6318 20.2053 21.9691 20.1266C22.3065 20.0478 23.6027 19.2559 23.794 18.9803C23.9852 18.7025 24.1552 17.1603 23.8418 16.8847C23.5283 16.6091 22.5933 15.7975 21.8496 15.6181C21.1032 15.4409 19.6396 15.7166 19.2066 15.9944V15.9944Z" fill="#ED6D30"/>
<path d="M30.2064 19.3172C30.2064 19.3172 26.4027 19.0919 26.3549 19.2888C26.3071 19.4856 26.2194 20.2469 26.4611 20.8594C26.6311 21.2947 27.0375 22.0472 28.286 22.4803C29.5344 22.9134 30.735 22.4409 31.0485 22.2419C31.6355 21.87 32.01 21.4106 32.1057 21.135C32.2013 20.8594 30.2064 19.3172 30.2064 19.3172V19.3172Z" fill="#DB0D27"/>
<path d="M28.3577 17.6744C27.7707 17.8494 26.3655 18.5647 26.339 19.3565C26.3151 20.1484 27.011 21.1175 27.3723 21.334C27.7335 21.5506 28.9341 22.1259 29.8213 22.0865C30.7112 22.0472 31.9357 21.4544 32.103 21.1372C32.2704 20.82 32.3421 19.8903 32.2704 19.4156C32.1987 18.9409 30.9502 17.8734 30.326 17.7137C29.7018 17.5562 28.8863 17.5169 28.3577 17.6744V17.6744Z" fill="#ED6D30"/>
<path d="M28.2141 25.0725C28.2141 25.0725 24.7318 24.2806 24.684 24.3397C24.6361 24.3988 24.1554 24.8931 24.2749 25.1316C24.3944 25.37 25.619 26.1794 26.1236 26.5359C26.6283 26.8925 28.153 27.6297 28.3336 27.6034C28.7666 27.5444 29.1013 26.9713 29.1013 26.9713L28.2141 25.0725V25.0725Z" fill="#DB0D27"/>
<path d="M28.5247 23.865C27.6747 23.3509 26.4342 23.3903 25.7622 23.6484C25.0902 23.9065 24.6811 24.2412 24.6094 24.4994C24.5377 24.7575 25.0928 25.254 25.3106 25.3919C25.5258 25.5297 26.1792 25.9365 26.1792 25.9365C26.1792 25.9365 27.1488 26.5622 27.5073 26.7897C28.0067 27.1069 28.6336 27.2862 28.8009 27.3059C28.9683 27.3256 29.7492 26.4944 29.6058 25.3853C29.5314 24.8187 29.2392 24.2981 28.5247 23.865V23.865Z" fill="#ED6D30"/>
<path d="M34.5787 22.2835L33.2824 22.2441C33.2824 22.2441 32.7538 23.0556 33.1151 23.9656C33.4099 24.7094 34.0288 25.1535 35.0594 25.3897C36.0927 25.6281 36.6691 25.5428 36.6691 25.5428L36.6851 24.9456L34.5787 22.2835Z" fill="#DB0D27"/>
<path d="M35.8267 20.9184C35.8267 20.9184 34.2277 20.7631 33.4016 21.9859C32.7694 22.9244 33.2103 23.7075 33.715 24.1625C34.2197 24.6175 34.9874 24.915 35.5638 24.9544C36.1402 24.9937 36.698 24.9565 36.698 24.9565C36.698 24.9565 36.4749 23.7425 36.2571 22.7275C36.1242 22.1194 35.8267 20.9184 35.8267 20.9184V20.9184Z" fill="#ED6D30"/>
<path d="M31.1676 12.3544C31.1676 12.3544 28.0704 12.4331 27.8765 12.6912C27.6826 12.9494 27.6853 14.0956 27.7809 14.5506C27.8765 15.0056 28.7186 16.1125 30.4 16.1322C32.0814 16.1519 32.6737 15.8062 33.3272 14.7606C33.9806 13.715 33.3006 12.5447 33.3006 12.5447L31.1676 12.3544V12.3544Z" fill="#DB0D27"/>
<path d="M31.1917 11.1863C30.5197 11.0791 29.582 11.3044 29.1251 11.5625C28.6683 11.8206 27.9245 12.3544 27.8767 12.7503C27.8289 13.1463 28.2619 14.2925 28.4292 14.5113C28.5966 14.7278 29.2925 15.3163 29.5103 15.4016C30.015 15.5985 31.4069 15.5 31.8159 15.3819C32.225 15.2638 33.3539 14.5113 33.4734 14.1153C33.593 13.7194 33.7364 13.0478 33.1839 12.2363C32.6314 11.4247 31.8159 11.2869 31.1917 11.1863V11.1863Z" fill="#ED6D30"/>
<path d="M35.5664 27.7872L32.8012 27.6887C32.8012 27.6887 32.4293 28.3034 32.5409 28.8415C32.6312 29.2878 33.0801 29.8959 33.885 30.1518C34.3418 30.2962 35.5371 30.2022 35.8293 30.0381C36.419 29.7056 36.6076 29.1018 36.589 28.7912C36.5811 28.6293 35.5664 27.7872 35.5664 27.7872V27.7872Z" fill="#DB0D27"/>
<path d="M34.9634 26.8203C34.2462 26.7306 33.4201 27.05 33.0642 27.354C32.7082 27.6581 32.6365 28.0387 32.772 28.4981C33.019 29.3381 33.6724 29.5765 33.9752 29.7056C34.4242 29.8959 35.6567 29.8587 36.0445 29.6159C36.4296 29.3753 36.7218 28.964 36.6315 28.3319C36.5385 27.6975 36.1985 26.9734 34.9634 26.8203Z" fill="#ED6D30"/>
<path d="M17.5625 11.7878C17.5864 12.2603 18.5905 12.1794 18.9863 12.1466C19.3024 12.1203 20.0939 12.0656 20.0939 11.6413C20.0939 11.2169 19.4033 11.2191 18.888 11.2344C18.3913 11.2497 17.5413 11.4138 17.5625 11.7878V11.7878ZM22.9574 9.00533C22.9574 9.31595 23.3717 9.34658 23.6294 9.36408C23.8871 9.37939 24.2217 9.29845 24.243 9.05564C24.2616 8.81064 24.0066 8.66408 23.6294 8.64877C23.2336 8.62908 22.9574 8.74283 22.9574 9.00533ZM25.4277 9.75345C25.8075 10.0925 26.376 9.6397 26.5752 9.42752C26.7717 9.21533 26.8116 8.88939 26.5938 8.72752C26.376 8.56564 25.9616 8.74283 25.6853 8.95502C25.4091 9.1672 25.1913 9.54127 25.4277 9.75345ZM29.7175 8.02752C30.1797 8.45845 30.942 7.73439 31.2581 7.48939C31.5742 7.24439 31.8319 6.90314 31.5344 6.62752C31.2369 6.35189 30.5649 6.74127 30.3099 6.98627C30.0522 7.22908 29.42 7.75189 29.7175 8.02752ZM15.1506 15.336C15.5996 15.4235 15.7456 14.986 15.8227 14.6513C15.9024 14.31 15.9024 13.9841 15.565 13.936C15.1825 13.8813 14.9727 14.1963 14.9116 14.5047C14.8611 14.7825 14.7363 15.255 15.1506 15.336V15.336Z" fill="#FCC12B"/>
<defs>
<filter id="filter0_d_20_528" x="0" y="0" width="51" height="45" filterUnits="userSpaceOnUse" color-interpolation-filters="sRGB">
<feFlood flood-opacity="0" result="BackgroundImageFix"/>
<feColorMatrix in="SourceAlpha" type="matrix" values="0 0 0 0 0 0 0 0 0 0 0 0 0 0 0 0 0 0 127 0" result="hardAlpha"/>
<feOffset dy="4"/>
<feGaussianBlur stdDeviation="2"/>
<feComposite in2="hardAlpha" operator="out"/>
<feColorMatrix type="matrix" values="0 0 0 0 0 0 0 0 0 0 0 0 0 0 0 0 0 0 0.25 0"/>
<feBlend mode="normal" in2="BackgroundImageFix" result="effect1_dropShadow_20_528"/>
<feBlend mode="normal" in="SourceGraphic" in2="effect1_dropShadow_20_528" result="shape"/>
</filter>
</defs>
</svg>
