<svg width="51" height="45" viewBox="0 0 51 45" fill="none" xmlns="http://www.w3.org/2000/svg">
<g filter="url(#filter0_d_20_538)">
<rect x="4" width="43" height="37" rx="10" fill="#118ED7"/>
</g>
<path d="M22.3859 27.7956L30.1714 28.9004L39.7092 22.9224C39.7092 22.9224 38.5289 20.018 37.9232 18.5327C37.3176 17.0474 36.3384 15.0073 36.3384 15.0073C36.3384 15.0073 36.8723 13.5171 37.1141 11.7249C37.3942 9.64054 37.1476 9.11025 37.1476 9.11025L32.0698 6.73621C32.0698 6.73621 31.3181 7.30087 30.643 8.57996C29.9679 9.85904 29.7332 10.3771 29.7332 10.3771C29.7332 10.3771 28.0143 10.2396 27.2387 10.2396C26.463 10.2396 25.1822 10.4114 25.1822 10.4114C25.1822 10.4114 23.9684 8.13068 23.3292 7.33524C22.69 6.53981 21.6893 5.76892 21.6893 5.76892C21.6893 5.76892 17.1741 8.07421 16.9706 9.73137C16.7671 11.3885 16.9587 12.5547 17.0951 13.2789C17.2292 14.0056 17.6338 15.0416 17.6338 15.0416C17.6338 15.0416 17.2292 15.6628 16.6905 17.0818C16.1519 18.5008 15.5438 20.2267 15.1057 20.9534C14.6676 21.6801 13.4873 23.3373 13.4873 23.3373L22.3859 27.7956V27.7956Z" fill="#FF6011"/>
<path d="M18.9937 3.92519C18.5101 4.06267 17.938 5.19199 17.4208 7.05783C17.1479 8.04231 16.9492 9.84677 16.9492 9.84677C16.9492 9.84677 18.5436 8.57997 19.9609 8.04967C21.3782 7.51938 23.1737 7.15113 23.1737 7.15113C23.1737 7.15113 22.3478 6.18384 21.3758 5.30738C20.5355 4.54877 19.4103 3.80735 18.9937 3.92519V3.92519ZM35.4408 4.10932C35.0912 4.01357 33.887 4.64452 33.0372 5.46942C32.1873 6.29431 31.3733 7.42855 31.3733 7.42855C31.3733 7.42855 33.0802 7.49729 34.6316 8.305C36.1829 9.11026 37.2387 9.82468 37.2387 9.82468C37.2387 9.82468 37.2052 8.16997 36.8556 6.73622C36.4965 5.26074 36.0249 4.27135 35.4408 4.10932V4.10932Z" fill="#575A5B"/>
<path d="M19.4893 6.09051C19.3313 6.1838 18.5077 7.83605 18.5676 10.3083C18.613 12.152 18.9722 13.6251 19.0607 13.6251C19.1062 13.6251 19.98 12.562 20.9041 11.8967C21.8282 11.2314 23.0157 10.868 23.0492 10.787C23.1162 10.625 22.3645 9.01693 21.3542 7.65929C20.3439 6.30165 19.6449 5.99968 19.4893 6.09051V6.09051ZM32.0268 10.9761C31.9766 10.7404 32.611 8.74197 33.2622 7.68139C33.9133 6.6208 34.835 5.56268 35.0816 5.60687C35.3282 5.65351 36.2954 7.9809 35.9794 10.0996C35.6658 12.2183 35.2612 13.4409 35.1487 13.463C35.0864 13.4753 34.4209 12.6651 33.5973 12.0121C32.9126 11.4671 32.046 11.0694 32.0268 10.9761V10.9761Z" fill="#FF9411"/>
<path d="M12.5466 23.487C12.5106 23.3053 13.4683 23.1408 14.1194 22.8192C14.7706 22.4976 16.1185 21.874 18.1869 22.1269C20.253 22.3798 21.292 23.0181 22.7715 24.0394C24.2534 25.0656 24.907 27.4715 24.907 27.4715L28.2993 28.2081C28.2993 28.2081 29.4796 25.5001 30.3438 24.6605C31.0692 23.9535 33.0252 22.3626 35.5341 22.1269C37.9832 21.8961 38.9719 22.4485 39.8027 22.7726C40.3772 22.996 40.88 23.1187 40.9494 23.3029C41.0165 23.487 39.9607 24.2235 39.9607 24.2235C39.9607 24.2235 40.9494 24.3855 40.971 24.523C41.0045 24.7292 40.2288 25.1908 39.6902 25.537C39.1515 25.8831 35.3809 27.8619 33.9828 28.6009C33.2406 28.9937 30.2744 30.1205 29.8267 30.0984C29.3766 30.0764 24.1193 29.821 23.7602 29.7989C23.4011 29.7768 19.8723 28.5076 18.0528 27.7932C16.0347 27.0026 12.4173 25.1221 12.5035 24.7759C12.549 24.5918 13.7843 24.4543 13.7843 24.4543C13.7843 24.4543 12.5897 23.7178 12.5466 23.487V23.487Z" fill="#DFDFDF"/>
<path d="M26.767 31.4144C30.8297 31.6181 30.9901 28.1197 30.564 26.6221C30.1378 25.1245 29.9583 25.1245 29.9583 25.1245C29.9583 25.1245 29.094 26.1507 28.6559 27.4298C28.5195 27.83 24.9045 27.4765 24.9045 27.4765C24.9045 27.4765 24.7249 26.7399 24.3874 26.0697C24.1647 25.6278 23.8248 25.1589 23.8248 25.1589C23.8248 25.1589 23.2191 26.001 23.1066 27.1278C22.994 28.2572 22.6349 31.2057 26.767 31.4144V31.4144Z" fill="#FEE9C9"/>
<path d="M24.0044 29.1434C23.8249 29.3546 24.3085 29.8873 24.5431 30.1279C24.7801 30.371 25.2853 30.7049 25.5869 30.7319C25.958 30.7662 26.851 29.9708 26.851 29.9708C26.851 29.9708 27.7655 30.8399 28.273 30.8227C28.7782 30.8055 29.3958 30.0739 29.6161 29.8309C29.7501 29.6811 30.0159 29.4012 29.8004 29.1385C29.6161 28.9127 29.336 29.1287 29.1085 29.3448C28.6393 29.7965 28.2946 30.1279 28.2323 30.1402C28.1318 30.1574 26.918 29.0158 26.918 29.0158C26.918 29.0158 25.7545 29.9143 25.5366 29.9143C25.405 29.9143 25.0004 29.5387 24.6772 29.222C24.4689 29.0256 24.2415 28.866 24.0044 29.1434V29.1434Z" fill="#4A4A4C"/>
<path d="M26.9034 26.5337C26.0271 26.5411 24.5955 26.5853 24.6793 27.5697C24.7631 28.5542 25.2347 29.4528 26.9704 29.4356C28.7061 29.4184 29.1442 28.4855 29.1777 27.5526C29.1968 27.0002 28.9934 26.5165 26.9034 26.5337V26.5337Z" fill="#2D2A25"/>
<path d="M22.4029 25.8267C22.3239 26.0697 21.8977 26.1385 21.4764 25.9126C21.055 25.6867 20.2793 25.2203 19.6234 24.9109C19.0728 24.6507 18.4599 24.496 18.5102 24.1327C18.5604 23.7693 19.2691 24.0296 19.858 24.2186C20.4469 24.4076 21.6607 24.9281 21.9145 25.0828C22.1682 25.2375 22.5226 25.4633 22.4029 25.8267V25.8267ZM20.0782 26.1016C19.4175 25.888 18.254 25.4609 18.1917 25.8954C18.1415 26.2416 19.1518 26.4846 19.8101 26.8627C20.3823 27.1917 21.4022 27.7563 21.5961 27.1229C21.7637 26.5681 20.7175 26.3103 20.0782 26.1016ZM31.5194 25.8782C31.7061 26.3103 32.3333 25.8758 32.9677 25.5492C33.7099 25.1687 34.6867 24.7366 34.974 24.6507C35.2612 24.5648 35.4791 24.4445 35.4288 24.253C35.3785 24.0639 34.9261 24.0418 34.5861 24.1155C34.0977 24.2186 33.3053 24.3929 32.6134 24.7538C32.1801 24.9821 31.268 25.289 31.5194 25.8782V25.8782ZM32.2783 27.226C32.4267 27.7342 33.6094 27.1057 34.1815 26.8627C34.7537 26.6196 35.8837 26.2416 35.7831 25.9298C35.6682 25.5787 34.2318 25.9249 33.8272 26.0329C33.255 26.1876 32.0772 26.5337 32.2783 27.226Z" fill="white"/>
<path d="M31.9236 20.1236C31.6866 20.8503 31.0354 21.6506 30.2885 21.4886C29.5416 21.3265 29.2447 20.5385 29.3955 19.4141C29.5368 18.3658 30.3675 17.9558 31.1144 18.1178C31.8614 18.2798 32.2516 19.117 31.9236 20.1236V20.1236ZM24.2459 19.5196C24.3896 20.2709 24.3106 21.1547 23.566 21.4027C22.8215 21.6482 21.9333 21.3069 21.6436 20.212C21.3228 18.9992 21.7992 18.4468 22.5438 18.2013C23.2907 17.9533 24.0448 18.4787 24.2459 19.5196V19.5196Z" fill="#2D2A25"/>
<path d="M22.91 18.6015C23.1159 18.8126 22.9938 19.1882 22.7927 19.3797C22.6706 19.4951 22.2875 19.7602 22.0338 19.4141C21.847 19.1588 21.9835 18.8789 22.2014 18.653C22.4192 18.4296 22.7233 18.4124 22.91 18.6015V18.6015ZM30.5757 18.653C30.8103 18.8273 30.7289 19.257 30.5589 19.4779C30.456 19.6129 30.0969 20.0107 29.8168 19.689C29.666 19.5147 29.6827 19.117 29.8623 18.8592C30.0442 18.6039 30.3626 18.4983 30.5757 18.653V18.653Z" fill="#DFDFDF"/>
<defs>
<filter id="filter0_d_20_538" x="0" y="0" width="51" height="45" filterUnits="userSpaceOnUse" color-interpolation-filters="sRGB">
<feFlood flood-opacity="0" result="BackgroundImageFix"/>
<feColorMatrix in="SourceAlpha" type="matrix" values="0 0 0 0 0 0 0 0 0 0 0 0 0 0 0 0 0 0 127 0" result="hardAlpha"/>
<feOffset dy="4"/>
<feGaussianBlur stdDeviation="2"/>
<feComposite in2="hardAlpha" operator="out"/>
<feColorMatrix type="matrix" values="0 0 0 0 0 0 0 0 0 0 0 0 0 0 0 0 0 0 0.25 0"/>
<feBlend mode="normal" in2="BackgroundImageFix" result="effect1_dropShadow_20_538"/>
<feBlend mode="normal" in="SourceGraphic" in2="effect1_dropShadow_20_538" result="shape"/>
</filter>
</defs>
</svg>
